HIERARCHY
ROOT Pelvis
{
	OFFSET 0.000000 0.000000 0.000000
	CHANNELS 6 Xposition Yposition Zposition Xrotation Yrotation Zrotation
	JOINT LeftUpLeg_virtual
	{
		OFFSET 0.000000 0.000000 0.000000
		CHANNELS 3 Xrotation Yrotation Zrotation
		JOINT LeftUpLeg
		{
			OFFSET 18.735201 -5.666702 -4.541200
			CHANNELS 3 Xrotation Yrotation Zrotation
			JOINT LeftLeg
			{
				OFFSET -0.021200 -31.938179 0.493100
				CHANNELS 3 Xrotation Yrotation Zrotation
				JOINT LeftFoot
				{
					OFFSET 0.021200 -31.938179 -4.336299
					CHANNELS 3 Xrotation Yrotation Zrotation
					JOINT LeftToeBase
					{
						OFFSET 0.943001 -26.722000 15.023500
						CHANNELS 3 Xrotation Yrotation Zrotation
						End Site
						{
							OFFSET 0 0 0
						}
					}
				}
			}
		}
	}
	JOINT RightUpLeg_virtual
	{
		OFFSET 0.000000 0.000000 0.000000
		CHANNELS 3 Xrotation Yrotation Zrotation
		JOINT RightUpLeg
		{
			OFFSET -18.735201 -5.666702 -4.541200
			CHANNELS 3 Xrotation Yrotation Zrotation
			JOINT RightLeg
			{
				OFFSET 0.018946 -31.938133 0.493100
				CHANNELS 3 Xrotation Yrotation Zrotation
				JOINT RightFoot
				{
					OFFSET -0.018946 -31.938126 -4.336299
					CHANNELS 3 Xrotation Yrotation Zrotation
					JOINT RightToeBase
					{
						OFFSET -0.943001 -26.722004 15.023500
						CHANNELS 3 Xrotation Yrotation Zrotation
						End Site
						{
							OFFSET 0 0 0
						}
					}
				}
			}
		}
	}
	JOINT Hips_virtual
	{
		OFFSET 0.000000 0.000000 0.000000
		CHANNELS 3 Xrotation Yrotation Zrotation
		JOINT Hips
		{
			OFFSET -0.000000 -0.000000 -0.000000
			CHANNELS 3 Xrotation Yrotation Zrotation
			JOINT Spine
			{
				OFFSET 0.000000 10.199997 -0.299500
				CHANNELS 3 Xrotation Yrotation Zrotation
				JOINT Spine1
				{
					OFFSET 0.000000 11.900002 -1.516600
					CHANNELS 3 Xrotation Yrotation Zrotation
					JOINT Spine2
					{
						OFFSET 0.000000 13.600006 -2.842500
						CHANNELS 3 Xrotation Yrotation Zrotation
						JOINT Neck_virtual
						{
							OFFSET 0.000000 0.000000 0.000000
							CHANNELS 3 Xrotation Yrotation Zrotation
							JOINT Neck
							{
								OFFSET 0.000000 9.624100 -2.890100
								CHANNELS 3 Xrotation Yrotation Zrotation
								JOINT Head
								{
									OFFSET 0.000000 14.068802 -1.351900
									CHANNELS 3 Xrotation Yrotation Zrotation
									End Site
									{
										OFFSET 0 0 0
									}
								}
							}
						}
						JOINT LeftShoulder_virtual
						{
							OFFSET 0.000000 0.000000 0.000000
							CHANNELS 3 Xrotation Yrotation Zrotation
							JOINT LeftShoulder
							{
								OFFSET 15.263000 10.923401 -0.547700
								CHANNELS 3 Xrotation Yrotation Zrotation
								JOINT LeftArm
								{
									OFFSET 25.438599 -2.830597 -13.032500
									CHANNELS 3 Xrotation Yrotation Zrotation
									JOINT LeftForeArm
									{
										OFFSET 29.960503 0.000000 0.000000
										CHANNELS 3 Xrotation Yrotation Zrotation
										JOINT LeftHand
										{
											OFFSET 27.849251 0.000000 0.000000
											CHANNELS 3 Xrotation Yrotation Zrotation
											End Site
											{
												OFFSET 0 0 0
											}
										}
									}
								}
							}
						}
						JOINT RightShoulder_virtual
						{
							OFFSET 0.000000 0.000000 0.000000
							CHANNELS 3 Xrotation Yrotation Zrotation
							JOINT RightShoulder
							{
								OFFSET -15.263000 10.923401 -0.547700
								CHANNELS 3 Xrotation Yrotation Zrotation
								JOINT RightArm
								{
									OFFSET -25.438599 -2.830597 -13.032500
									CHANNELS 3 Xrotation Yrotation Zrotation
									JOINT RightForeArm
									{
										OFFSET -29.960503 0.000000 0.000000
										CHANNELS 3 Xrotation Yrotation Zrotation
										JOINT RightHand
										{
											OFFSET -27.849251 0.000000 0.000000
											CHANNELS 3 Xrotation Yrotation Zrotation
											End Site
											{
												OFFSET 0 0 0
											}
										}
									}
								}
							}
						}
					}
				}
			}
		}
	}
}
MOTION
Frames: 5
Frame Time: 0.03333333
-3.428500 123.816696 4.223766 0.000000 0.000000 0.000000 -13.779592 -43.365428 4.124129 -63.446058 -6.725044 23.574891 64.409988 1.268930 3.433369 9.432388 -1.314503 0.940030 0.000000 0.000000 0.000000 -44.755207 -50.391701 4.687726 -86.075314 -15.420370 -9.135081 106.350096 15.542654 -0.935148 25.914586 16.253910 30.571770 0.000000 0.000000 0.000000 4.102827 -19.496780 1.067406 16.275055 -15.094588 -0.042457 28.117606 -1.838476 -6.734652 15.176455 -0.051613 -4.755593 0.000000 0.000000 0.000000 6.400391 3.154878 -5.033415 1.489563 2.655287 -2.102114 0.000000 0.000000 0.000000 14.289423 1.267535 -1.178309 9.632471 -2.942470 -1.217469 15.053614 -1.711773 0.689546 15.001766 -24.021157 16.948585 0.000000 0.000000 0.000000 12.806758 1.829536 -2.513552 11.886342 12.627596 -7.935746 -48.214066 -11.310709 27.274339 -21.248802 44.461311 11.180013 0.000000 0.000000 0.000000 
-2.541015 124.792267 3.294134 0.000000 0.000000 0.000000 -11.073640 -45.677221 7.037894 -61.699776 -7.905912 25.169606 66.341614 1.398437 4.479326 11.499457 -1.748689 2.631766 0.000000 0.000000 0.000000 -50.093939 -52.724119 3.065052 -89.692152 -16.446305 -8.356974 106.726931 15.516083 -0.933798 27.554682 16.868324 30.468456 0.000000 0.000000 0.000000 2.165859 -19.163107 -0.075899 17.417631 -12.446698 0.261925 28.670429 -1.982975 -7.415787 15.636355 0.201102 -4.946198 0.000000 0.000000 0.000000 5.947869 2.831236 -5.050576 1.249142 2.901642 -1.891070 0.000000 0.000000 0.000000 13.844332 0.687142 -1.177152 9.821144 -3.491943 0.124372 11.237907 -0.851040 6.493501 14.096346 -20.871658 17.604782 0.000000 0.000000 0.000000 13.746793 1.644644 -2.740650 13.568143 11.934798 -9.304258 -49.211691 -11.861678 23.988678 -23.380497 46.100594 13.183668 0.000000 0.000000 0.000000 
-2.735366 124.591980 4.099411 0.000000 0.000000 0.000000 -11.857601 -47.728542 7.019544 -62.404105 -8.746245 25.173675 68.045213 1.418414 4.691892 13.209601 -1.851836 2.952263 0.000000 0.000000 0.000000 -54.226463 -54.517866 0.984032 -92.034730 -16.787656 -8.363655 108.345993 15.019499 -0.959559 28.977791 16.705328 29.877126 0.000000 0.000000 0.000000 4.112464 -18.642643 1.568548 13.780532 -11.662129 -0.579827 28.775648 -2.375143 -7.835281 14.953458 0.157194 -4.677965 0.000000 0.000000 0.000000 6.300224 2.876847 -4.530811 0.917800 3.129065 -1.849963 0.000000 0.000000 0.000000 13.977910 0.923746 -1.199181 9.361696 -4.823522 -0.471007 11.384432 -1.313263 7.530560 13.983709 -18.716293 16.817596 0.000000 0.000000 0.000000 14.201493 1.736816 -2.671878 14.110352 11.529049 -10.795829 -48.750281 -10.831430 24.453585 -25.081317 46.811869 14.029558 0.000000 0.000000 0.000000 
-1.596486 125.037491 3.773438 0.000000 0.000000 0.000000 -13.339616 -49.852680 5.416548 -63.155392 -9.114629 24.200088 68.005065 2.217989 5.287403 13.867771 -1.247772 4.602638 0.000000 0.000000 0.000000 -55.629234 -56.089322 1.217751 -93.057270 -17.471566 -7.960303 106.605531 15.173275 -0.982169 28.034477 16.729818 29.779837 0.000000 0.000000 0.000000 3.377691 -18.524195 1.188492 17.474192 -13.192297 0.337117 28.451846 -2.573684 -7.707595 16.003157 0.173082 -5.217727 0.000000 0.000000 0.000000 6.454865 2.788336 -4.843993 1.282649 3.156947 -2.022479 0.000000 0.000000 0.000000 14.830419 0.868123 -1.367577 9.318271 -3.495443 0.654428 10.877738 0.256192 8.322117 14.583002 -18.490772 16.660003 0.000000 0.000000 0.000000 14.520487 2.269918 -2.673284 13.970744 11.789314 -10.231834 -50.017130 -9.956545 21.936495 -26.643350 50.093762 15.526876 0.000000 0.000000 0.000000 
-0.317615 124.388840 2.889820 0.000000 0.000000 0.000000 -14.836974 -49.327988 4.525345 -63.991755 -9.119073 23.758695 69.160003 1.272738 5.319987 15.420062 -2.318588 3.881082 0.000000 0.000000 0.000000 -58.370155 -58.147081 1.215375 -94.967046 -18.712119 -7.116617 107.054329 15.322476 -1.120976 28.173695 16.962317 29.774625 0.000000 0.000000 0.000000 4.499818 -17.124087 1.574119 16.243552 -12.577933 2.968933 27.877975 -2.369845 -8.188104 14.993355 0.053105 -4.905803 0.000000 0.000000 0.000000 6.483238 2.509670 -5.023556 1.059866 3.293173 -1.961292 0.000000 0.000000 0.000000 14.935353 0.487738 -1.538345 8.851893 -3.472699 1.026517 9.811037 0.141453 10.040282 14.625624 -17.059021 16.423031 0.000000 0.000000 0.000000 14.465818 2.045834 -2.352690 14.447141 11.766804 -10.415050 -49.269003 -12.097135 20.850117 -28.948152 51.149688 18.428458 0.000000 0.000000 0.000000 
